<?xml version="1.0" encoding="UTF-8" standalone="no"?>
<!-- Created with Inkscape (http://www.inkscape.org/) -->
<svg
   xmlns:dc="http://purl.org/dc/elements/1.1/"
   xmlns:cc="http://creativecommons.org/ns#"
   xmlns:rdf="http://www.w3.org/1999/02/22-rdf-syntax-ns#"
   xmlns:svg="http://www.w3.org/2000/svg"
   xmlns="http://www.w3.org/2000/svg"
   xmlns:sodipodi="http://sodipodi.sourceforge.net/DTD/sodipodi-0.dtd"
   xmlns:inkscape="http://www.inkscape.org/namespaces/inkscape"
   width="744.09448819"
   height="1052.3622047"
   id="svg2"
   sodipodi:version="0.32"
   inkscape:version="0.46"
   sodipodi:docname="btn_pencil_edit.svg"
   inkscape:output_extension="org.inkscape.output.svg.inkscape"
   inkscape:export-filename="/home/angelo/workspace/triplander/templates/www4/btn_pencil_edit.png"
   inkscape:export-xdpi="4.0963998"
   inkscape:export-ydpi="4.0963998">
  <defs
     id="defs4">
    <inkscape:perspective
       sodipodi:type="inkscape:persp3d"
       inkscape:vp_x="0 : 526.18109 : 1"
       inkscape:vp_y="0 : 1000 : 0"
       inkscape:vp_z="744.09448 : 526.18109 : 1"
       inkscape:persp3d-origin="372.04724 : 350.78739 : 1"
       id="perspective10" />
  </defs>
  <sodipodi:namedview
     id="base"
     pagecolor="#ffffff"
     bordercolor="#666666"
     borderopacity="1.0"
     inkscape:pageopacity="0.0"
     inkscape:pageshadow="2"
     inkscape:zoom="0.33663363"
     inkscape:cx="252.28626"
     inkscape:cy="524.99405"
     inkscape:document-units="px"
     inkscape:current-layer="layer1"
     showgrid="false"
     inkscape:window-width="1279"
     inkscape:window-height="721"
     inkscape:window-x="0"
     inkscape:window-y="29" />
  <metadata
     id="metadata7">
    <rdf:RDF>
      <cc:Work
         rdf:about="">
        <dc:format>image/svg+xml</dc:format>
        <dc:type
           rdf:resource="http://purl.org/dc/dcmitype/StillImage" />
      </cc:Work>
    </rdf:RDF>
  </metadata>
  <g
     inkscape:label="Livello 1"
     inkscape:groupmode="layer"
     id="layer1">
    <g
       style="fill:#333333;stroke:none"
       id="g3201"
       transform="matrix(2.3000828,-1.5903874,1.7301665,2.5022369,-501.10787,-206.00929)"
       inkscape:export-filename="/home/angelo/workspace/triplander/templates/www4/images/btn_pencil_edit.png"
       inkscape:export-xdpi="2.96"
       inkscape:export-ydpi="2.96">
      <path
         sodipodi:nodetypes="cccc"
         id="rect2387"
         d="M 150,452.36218 L 127.02207,502.36218 L 100,452.36218 L 150,452.36218 z"
         style="fill:#333333;fill-opacity:1;stroke:none;stroke-width:8.19534969000000046;stroke-miterlimit:4" />
      <path
         id="path3178"
         d="M 125,488.375 C 123.26154,488.375 121.61898,488.81645 120.125,489.59375 L 127.03125,502.375 L 132.1875,491.15625 C 130.1792,489.40795 127.69046,488.375 125,488.375 z"
         style="fill:#333333;fill-opacity:1;stroke:none;stroke-width:16;stroke-miterlimit:4;stroke-dasharray:none" />
      <rect
         y="242.36218"
         x="100"
         height="210"
         width="16.66"
         id="rect3170"
         style="fill:#333333;fill-opacity:1;stroke:none;stroke-width:15.93841553000000033;stroke-miterlimit:4;stroke-dasharray:none" />
      <rect
         style="fill:#333333;fill-opacity:1;stroke:none;stroke-width:15.93841553000000033;stroke-miterlimit:4;stroke-dasharray:none"
         id="rect3174"
         width="16.66"
         height="210"
         x="116.67"
         y="242.36218" />
      <rect
         y="242.36218"
         x="133.32001"
         height="210"
         width="16.66"
         id="rect3176"
         style="fill:#333333;fill-opacity:1;stroke:none;stroke-width:15.93841553000000033;stroke-miterlimit:4;stroke-dasharray:none" />
    </g>
    <path
       sodipodi:type="arc"
       style="fill:#ffeeaa;fill-opacity:1;stroke:none;stroke-width:4;stroke-miterlimit:4;stroke-dasharray:16, 8, 4, 8;stroke-dashoffset:0;stroke-opacity:1"
       id="path3225"
       sodipodi:cx="319.27954"
       sodipodi:cy="556.63867"
       sodipodi:rx="138.63454"
       sodipodi:ry="138.63454"
       d="M 457.91408,556.63867 A 138.63454,138.63454 0 1 1 180.645,556.63867 A 138.63454,138.63454 0 1 1 457.91408,556.63867 z"
       inkscape:export-filename="/home/angelo/workspace/triplander/templates/www4/images/btn_pencil_edit.png"
       inkscape:export-xdpi="2.96"
       inkscape:export-ydpi="2.96" />
    <path
       d="M 457.91408,556.63867 A 138.63454,138.63454 0 1 1 180.645,556.63867 A 138.63454,138.63454 0 1 1 457.91408,556.63867 z"
       sodipodi:ry="138.63454"
       sodipodi:rx="138.63454"
       sodipodi:cy="556.63867"
       sodipodi:cx="319.27954"
       id="path3227"
       style="fill:#fff6d5;fill-opacity:1;stroke:none;stroke-width:4;stroke-miterlimit:4;stroke-dasharray:16, 8, 4, 8;stroke-dashoffset:0;stroke-opacity:1"
       sodipodi:type="arc"
       transform="matrix(0.7727273,0,0,0.7727273,72.563533,126.50879)"
       inkscape:export-filename="/home/angelo/workspace/triplander/templates/www4/images/btn_pencil_edit.png"
       inkscape:export-xdpi="2.96"
       inkscape:export-ydpi="2.96" />
    <path
       style="fill:#333333;fill-opacity:1;stroke:none;stroke-width:2;stroke-miterlimit:4;stroke-dasharray:none;stroke-opacity:1"
       d="M 259.32605,146.48645 C 218.24809,174.89582 177.16274,203.29459 136.1073,231.73645 C 258.63005,408.92263 381.1482,586.11198 503.6698,763.29895 C 548.57033,788.08201 593.46068,812.88372 638.3573,837.67395 C 628.4823,837.67395 618.6073,837.67395 608.7323,837.67395 C 613.10775,845.03371 605.67346,855.7047 613.8573,861.36145 C 633.23478,862.54823 652.65044,861.47831 672.0448,861.8927 C 667.60293,854.57924 675.3116,843.34864 666.6073,838.17395 C 664.3372,837.3899 660.51123,839.61955 661.33244,835.33933 C 650.44883,782.2258 639.63809,729.01131 627.9823,676.11145 C 505.64379,499.19117 383.31707,322.26267 260.95105,145.36145 L 260.12886,145.93066 L 259.32605,146.48645 z M 150.26355,837.1427 C 145.55244,838.79384 138.81964,835.36188 135.7323,840.8302 C 136.55778,846.97503 133.04053,854.57168 137.1698,859.8927 C 141.72709,863.4606 148.30192,861.70257 153.6073,861.8302 C 158.70064,861.33368 161.21255,855.96798 159.95105,851.3927 C 160.78281,845.57234 158.96333,837.13673 151.6698,837.11145 C 151.20105,837.12174 150.73131,837.09062 150.26355,837.1427 z M 259.7948,837.1427 C 255.08369,838.79384 248.35089,835.36188 245.26355,840.8302 C 246.08903,846.97503 242.57178,854.57168 246.70105,859.8927 C 251.25834,863.4606 257.83317,861.70257 263.13855,861.8302 C 268.23189,861.33368 270.7438,855.96798 269.4823,851.3927 C 270.31406,845.57234 268.49458,837.13673 261.20105,837.11145 C 260.7323,837.12174 260.26256,837.09062 259.7948,837.1427 z M 369.2948,837.1427 C 364.65865,838.83617 357.34441,835.19229 354.8573,841.1427 C 354.93871,846.56515 353.55194,852.13526 354.6698,857.3927 C 356.30855,862.00022 361.57303,862.40059 365.63855,862.0802 C 371.21566,863.10173 380.02864,860.8939 379.2323,853.7677 C 379.16095,847.95663 379.74776,838.65427 372.20105,837.29895 C 371.24923,837.10157 370.26447,837.07045 369.2948,837.1427 z M 478.82605,837.1427 C 474.11494,838.79384 467.38214,835.36188 464.2948,840.8302 C 465.12028,846.97503 461.60303,854.57168 465.7323,859.8927 C 470.28959,863.4606 476.86442,861.70257 482.1698,861.8302 C 487.26314,861.33368 489.77505,855.96798 488.51355,851.3927 C 489.34531,845.57234 487.52583,837.13673 480.2323,837.11145 C 479.76355,837.12174 479.29381,837.09062 478.82605,837.1427 z M 588.32605,837.1427 C 583.6899,838.83617 576.37566,835.19229 573.88855,841.1427 C 573.96996,846.56515 572.58319,852.13526 573.70105,857.3927 C 575.3398,862.00022 580.60428,862.40059 584.6698,862.0802 C 590.24731,863.10206 599.06411,860.89143 598.26355,853.7677 C 598.1922,847.95663 598.77901,838.65427 591.2323,837.29895 C 590.28048,837.10157 589.29572,837.07045 588.32605,837.1427 z M 94.857297,837.61145 C 86.26394,837.71638 77.669316,837.81409 69.076047,837.6427 C 70.083278,843.89538 68.108523,850.04209 69.076047,856.23645 C 70.645946,863.93098 80.264989,862.01955 86.013547,861.7052 C 98.806287,862.02684 111.64068,861.78947 124.45105,861.86145 C 120.0756,854.50169 127.50989,843.8307 119.32605,838.17395 C 111.18273,837.61926 103.0169,837.51893 94.857297,837.61145 z M 204.51355,837.61145 C 193.66986,837.63639 182.82566,837.86169 171.9823,837.6427 C 172.98953,843.89538 171.01478,850.04209 171.9823,856.23645 C 173.56487,863.92109 183.14068,862.02275 188.88855,861.7052 C 203.89918,862.04245 218.95385,861.77764 233.9823,861.86145 C 229.60685,854.50169 237.04114,843.8307 228.8573,838.17395 C 220.75325,837.69469 212.63094,837.52772 204.51355,837.61145 z M 314.01355,837.61145 C 303.18028,837.63658 292.3465,837.8616 281.51355,837.6427 C 282.52078,843.89538 280.54603,850.04209 281.51355,856.23645 C 283.08345,863.93098 292.70249,862.01955 298.45105,861.7052 C 313.44086,862.04228 328.47467,861.7778 343.4823,861.86145 C 339.10685,854.50169 346.54114,843.8307 338.3573,838.17395 C 330.25328,837.69386 322.13093,837.52801 314.01355,837.61145 z M 423.5448,837.61145 C 412.70111,837.63639 401.85691,837.86169 391.01355,837.6427 C 392.02078,843.89538 390.04603,850.04209 391.01355,856.23645 C 392.58345,863.93098 402.20249,862.01955 407.95105,861.7052 C 422.95127,862.04236 437.99551,861.77772 453.01355,861.86145 C 448.6381,854.50169 456.07239,843.8307 447.88855,838.17395 C 439.7845,837.69469 431.66219,837.52772 423.5448,837.61145 z M 533.0448,837.61145 C 522.21153,837.63658 511.37775,837.8616 500.5448,837.6427 C 501.55203,843.89538 499.57728,850.04209 500.5448,856.23645 C 502.12737,863.92109 511.70318,862.02275 517.45105,861.7052 C 532.45127,862.04236 547.49551,861.77772 562.51355,861.86145 C 558.1381,854.50169 565.57239,843.8307 557.38855,838.17395 C 549.28453,837.69386 541.16218,837.52801 533.0448,837.61145 z"
       id="path3197"
       inkscape:export-filename="/home/angelo/workspace/triplander/templates/www4/images/btn_pencil_edit.png"
       inkscape:export-xdpi="2.96"
       inkscape:export-ydpi="2.96" />
    <g
       transform="matrix(3.0421483,0,0,3.0421483,62.895331,-614.35981)"
       id="g2388"
       inkscape:export-filename="/home/angelo/workspace/triplander/templates/www4/images/btn_pencil_edit.png"
       inkscape:export-xdpi="2.96"
       inkscape:export-ydpi="2.96">
      <g
         id="g2390"
         transform="matrix(0.7560719,-0.5227843,0.5687318,0.822523,-183.39102,131.43603)">
        <path
           sodipodi:nodetypes="cccc"
           id="path2392"
           d="M 150,452.36218 L 127.02207,502.36218 L 100,452.36218 L 150,452.36218 z"
           style="fill:#ffb380;fill-opacity:1;stroke:none;stroke-width:8.19534969;stroke-miterlimit:4" />
        <path
           id="path2394"
           d="M 125,488.375 C 123.26154,488.375 121.61898,488.81645 120.125,489.59375 L 127.03125,502.375 L 132.1875,491.15625 C 130.1792,489.40795 127.69046,488.375 125,488.375 z"
           style="fill:#aa0000;fill-opacity:1;stroke:none;stroke-width:16;stroke-miterlimit:4;stroke-dasharray:none" />
        <rect
           y="242.36218"
           x="100"
           height="210"
           width="16.66"
           id="rect2396"
           style="fill:#ff8080;fill-opacity:1;stroke:none;stroke-width:15.93841553;stroke-miterlimit:4;stroke-dasharray:none" />
        <rect
           style="fill:#ffaaaa;fill-opacity:1;stroke:none;stroke-width:15.93841553;stroke-miterlimit:4;stroke-dasharray:none"
           id="rect2398"
           width="16.66"
           height="210"
           x="116.67"
           y="242.36218" />
        <rect
           y="242.36218"
           x="133.32001"
           height="210"
           width="16.66"
           id="rect2400"
           style="fill:#ffd5d5;fill-opacity:1;stroke:none;stroke-width:15.93841553;stroke-miterlimit:4;stroke-dasharray:none" />
        <path
           id="path2402"
           d="M 100,242.375 L 100,452.375 L 127.03125,502.375 L 150,452.375 L 150,242.375 L 100,242.375 z"
           style="fill:none;fill-opacity:1;stroke:#000000;stroke-width:2;stroke-miterlimit:4;stroke-dasharray:none;stroke-opacity:1" />
      </g>
      <path
         style="fill:none;fill-rule:evenodd;stroke:#000000;stroke-width:4;stroke-linecap:butt;stroke-linejoin:miter;stroke-miterlimit:4;stroke-dasharray:16, 8, 4, 8;stroke-dashoffset:0;stroke-opacity:1"
         d="M 199.77208,480.52388 L 5.9411772,480.52388"
         id="path2404"
         sodipodi:nodetypes="cc" />
    </g>
  </g>
</svg>
