<?xml version="1.0" encoding="UTF-8" standalone="no"?>
<!-- Created with Inkscape (http://www.inkscape.org/) -->
<svg
   xmlns:dc="http://purl.org/dc/elements/1.1/"
   xmlns:cc="http://creativecommons.org/ns#"
   xmlns:rdf="http://www.w3.org/1999/02/22-rdf-syntax-ns#"
   xmlns:svg="http://www.w3.org/2000/svg"
   xmlns="http://www.w3.org/2000/svg"
   xmlns:sodipodi="http://sodipodi.sourceforge.net/DTD/sodipodi-0.dtd"
   xmlns:inkscape="http://www.inkscape.org/namespaces/inkscape"
   width="744.09448819"
   height="1052.3622047"
   id="svg2"
   sodipodi:version="0.32"
   inkscape:version="0.46"
   sodipodi:docname="btn_go.svg"
   inkscape:output_extension="org.inkscape.output.svg.inkscape">
  <defs
     id="defs4">
    <inkscape:perspective
       sodipodi:type="inkscape:persp3d"
       inkscape:vp_x="0 : 526.18109 : 1"
       inkscape:vp_y="0 : 1000 : 0"
       inkscape:vp_z="744.09448 : 526.18109 : 1"
       inkscape:persp3d-origin="372.04724 : 350.78739 : 1"
       id="perspective10" />
  </defs>
  <sodipodi:namedview
     id="base"
     pagecolor="#ffffff"
     bordercolor="#666666"
     borderopacity="1.0"
     inkscape:pageopacity="0.0"
     inkscape:pageshadow="2"
     inkscape:zoom="0.35"
     inkscape:cx="446.00791"
     inkscape:cy="755.87554"
     inkscape:document-units="px"
     inkscape:current-layer="layer1"
     showgrid="false"
     inkscape:window-width="1279"
     inkscape:window-height="721"
     inkscape:window-x="0"
     inkscape:window-y="29" />
  <metadata
     id="metadata7">
    <rdf:RDF>
      <cc:Work
         rdf:about="">
        <dc:format>image/svg+xml</dc:format>
        <dc:type
           rdf:resource="http://purl.org/dc/dcmitype/StillImage" />
      </cc:Work>
    </rdf:RDF>
  </metadata>
  <g
     inkscape:label="Livello 1"
     inkscape:groupmode="layer"
     id="layer1">
    <g
       id="g2417"
       transform="matrix(0.6672367,0,0,0.6672367,161.07736,-145.08851)">
      <path
         id="path2387"
         d="M 439.1875,443.3125 C 432.00523,443.28745 424.73397,443.37868 417.40625,443.5 C 422.61469,447.00408 427.65829,450.74885 432.5,454.71875 C 564.97766,457.66855 663.6346,493.90276 674,551.40625 C 684.49816,609.64596 601.48685,673.2373 474.1875,714.09375 C 469.6365,721.2367 464.62119,728.04941 459.21875,734.53125 C 636.86866,691.96194 757.78178,616.19216 744.03125,547.40625 C 731.23922,483.41515 605.61343,443.89288 439.1875,443.3125 z M 159.9375,475.5 C -20.289106,517.85162 -143.49636,594.32839 -129.625,663.71875 C -116.45087,729.62128 16.466809,769.55225 190.3125,767.75 C 185.38466,764.14277 180.63001,760.31817 176.0625,756.28125 C 46.53155,752.4115 -49.380944,716.37571 -59.59375,659.71875 C -70.191641,600.92553 14.520587,536.68069 143.875,495.875 C 148.78619,488.73585 154.15635,481.92153 159.9375,475.5 z"
         style="fill:#800000" />
      <text
         transform="scale(0.9335455,1.0711851)"
         id="text2392"
         y="660.33331"
         x="151.25478"
         style="font-size:275.08532715px;font-style:normal;font-weight:normal;fill:#000080;fill-opacity:1;stroke:none;stroke-width:1px;stroke-linecap:butt;stroke-linejoin:miter;stroke-opacity:1;font-family:Bitstream Vera Sans"
         xml:space="preserve"><tspan
           style="font-style:normal;font-variant:normal;font-weight:normal;font-stretch:normal;fill:#000080;font-family:MgOpen Cosmetica;-inkscape-font-specification:MgOpen Cosmetica"
           y="660.33331"
           x="151.25478"
           id="tspan2394"
           sodipodi:role="line">Go</tspan></text>
    </g>
  </g>
</svg>
